<mxfile host="app.diagrams.net" agent="Mozilla/5.0 (Macintosh; Intel Mac OS X 10_15_7) AppleWebKit/537.36 (KHTML, like Gecko) Chrome/128.0.0.0 Safari/537.36" version="24.7.12">
  <diagram id="2f404044-711c-603c-8f00-f6bb4c023d3c" name="Page-1">
    <mxGraphModel dx="1306" dy="756" grid="0" gridSize="10" guides="1" tooltips="1" connect="1" arrows="1" fold="1" page="1" pageScale="1" pageWidth="1169" pageHeight="827" background="none" math="0" shadow="0">
      <root>
        <mxCell id="0" />
        <mxCell id="1" parent="0" />
        <mxCell id="21" value="" style="swimlane;shadow=0;strokeColor=#4277BB;fillColor=#ffffff;fontColor=none;align=right;startSize=0;collapsible=0;noLabel=1;strokeWidth=3;" parent="1" vertex="1">
          <mxGeometry x="49" y="51" width="1072" height="730" as="geometry" />
        </mxCell>
        <mxCell id="9FPDRN5Og9MOIQTKryaw-105" value="" style="endArrow=none;html=1;rounded=0;exitX=1;exitY=0.5;exitDx=0;exitDy=0;entryX=0;entryY=0.5;entryDx=0;entryDy=0;strokeColor=#edc11c;strokeWidth=2;" parent="21" source="9FPDRN5Og9MOIQTKryaw-95" target="10" edge="1">
          <mxGeometry width="50" height="50" relative="1" as="geometry">
            <mxPoint x="390" y="330" as="sourcePoint" />
            <mxPoint x="440" y="280" as="targetPoint" />
          </mxGeometry>
        </mxCell>
        <mxCell id="23" style="edgeStyle=orthogonalEdgeStyle;rounded=0;html=1;labelBackgroundColor=#ffffff;jettySize=auto;orthogonalLoop=1;strokeColor=#EDC11C;fontColor=#000000;startArrow=classic;startFill=1;strokeWidth=2;endSize=4;startSize=4;" parent="21" source="2" target="3" edge="1">
          <mxGeometry relative="1" as="geometry" />
        </mxCell>
        <mxCell id="31" style="edgeStyle=orthogonalEdgeStyle;rounded=0;html=1;entryX=0.25;entryY=0;labelBackgroundColor=#ffffff;jettySize=auto;orthogonalLoop=1;strokeColor=#EDC11C;fontColor=#000000;startArrow=classic;strokeWidth=2;endSize=4;startSize=4;" parent="21" source="6" edge="1">
          <mxGeometry relative="1" as="geometry">
            <mxPoint x="806.5835921350013" y="253.16718427000205" as="targetPoint" />
          </mxGeometry>
        </mxCell>
        <mxCell id="jU6cq3XHtNQqyiMAm8es-71" value="&lt;font color=&quot;#4277bb&quot; style=&quot;font-size: 12px;&quot;&gt;服务调用链路&lt;/font&gt;" style="edgeLabel;html=1;align=center;verticalAlign=middle;resizable=0;points=[];" vertex="1" connectable="0" parent="31">
          <mxGeometry x="-0.1668" relative="1" as="geometry">
            <mxPoint as="offset" />
          </mxGeometry>
        </mxCell>
        <mxCell id="32" style="edgeStyle=orthogonalEdgeStyle;rounded=0;html=1;entryX=0.75;entryY=0;labelBackgroundColor=#ffffff;jettySize=auto;orthogonalLoop=1;strokeColor=#EDC11C;fontColor=#000000;startArrow=classic;strokeWidth=2;endSize=4;startSize=4;" parent="21" source="6" target="5" edge="1">
          <mxGeometry relative="1" as="geometry">
            <Array as="points">
              <mxPoint x="243" y="95" />
            </Array>
          </mxGeometry>
        </mxCell>
        <mxCell id="9FPDRN5Og9MOIQTKryaw-115" value="&lt;font color=&quot;#4277bb&quot;&gt;服务调用链路&lt;/font&gt;" style="edgeLabel;html=1;align=center;verticalAlign=middle;resizable=0;points=[];" parent="32" vertex="1" connectable="0">
          <mxGeometry x="-0.0965" relative="1" as="geometry">
            <mxPoint x="-1" as="offset" />
          </mxGeometry>
        </mxCell>
        <mxCell id="27" style="edgeStyle=orthogonalEdgeStyle;rounded=0;html=1;labelBackgroundColor=#ffffff;jettySize=auto;orthogonalLoop=1;strokeColor=#4277BB;fontColor=#000000;strokeWidth=2;endSize=4;startSize=4;startArrow=classic;startFill=1;" parent="21" target="10" edge="1">
          <mxGeometry relative="1" as="geometry">
            <Array as="points">
              <mxPoint x="360" y="390" />
              <mxPoint x="690" y="390" />
            </Array>
            <mxPoint x="360" y="310" as="sourcePoint" />
          </mxGeometry>
        </mxCell>
        <mxCell id="29" style="edgeStyle=orthogonalEdgeStyle;rounded=0;html=1;labelBackgroundColor=#ffffff;jettySize=auto;orthogonalLoop=1;strokeColor=#EDC11C;fontColor=#000000;startArrow=classic;strokeWidth=2;endSize=4;startSize=4;" parent="21" target="10" edge="1">
          <mxGeometry relative="1" as="geometry">
            <Array as="points">
              <mxPoint x="360" y="210" />
              <mxPoint x="690" y="210" />
            </Array>
            <mxPoint x="360" y="250" as="sourcePoint" />
          </mxGeometry>
        </mxCell>
        <mxCell id="28" style="edgeStyle=orthogonalEdgeStyle;rounded=0;html=1;labelBackgroundColor=#ffffff;jettySize=auto;orthogonalLoop=1;strokeColor=#4277BB;fontColor=#000000;strokeWidth=2;endSize=4;startSize=4;startArrow=classic;startFill=1;" parent="21" source="8" edge="1">
          <mxGeometry relative="1" as="geometry">
            <Array as="points">
              <mxPoint x="470" y="390" />
              <mxPoint x="570" y="390" />
            </Array>
            <mxPoint x="570" y="310" as="targetPoint" />
          </mxGeometry>
        </mxCell>
        <mxCell id="30" style="edgeStyle=orthogonalEdgeStyle;rounded=0;html=1;labelBackgroundColor=#ffffff;jettySize=auto;orthogonalLoop=1;strokeColor=#EDC11C;fontColor=#000000;startArrow=classic;strokeWidth=2;endSize=4;startSize=4;" parent="21" source="8" edge="1">
          <mxGeometry relative="1" as="geometry">
            <Array as="points">
              <mxPoint x="470" y="210" />
              <mxPoint x="570" y="210" />
            </Array>
            <mxPoint x="570" y="250" as="targetPoint" />
          </mxGeometry>
        </mxCell>
        <mxCell id="2" value="用户" style="aspect=fixed;perimeter=ellipsePerimeter;html=1;align=center;shadow=0;dashed=0;image;image=img/lib/ibm/users/user.svg;strokeColor=#FF0000;fillColor=#FFFF66;gradientColor=none;fontColor=#4277BB;labelBackgroundColor=#ffffff;fontSize=12;spacingTop=3;" parent="21" vertex="1">
          <mxGeometry x="60" y="70" width="60" height="60" as="geometry" />
        </mxCell>
        <mxCell id="62" style="edgeStyle=orthogonalEdgeStyle;rounded=0;html=1;labelBackgroundColor=#ffffff;startArrow=classic;startFill=1;startSize=4;endSize=4;jettySize=auto;orthogonalLoop=1;strokeColor=#EDC11C;strokeWidth=2;fontSize=12;fontColor=#4277BB;" parent="21" source="3" target="5" edge="1">
          <mxGeometry relative="1" as="geometry">
            <Array as="points">
              <mxPoint x="90" y="170" />
            </Array>
          </mxGeometry>
        </mxCell>
        <mxCell id="3" value="前端界面&lt;div&gt;基于Vue3&lt;/div&gt;" style="aspect=fixed;perimeter=ellipsePerimeter;html=1;align=center;shadow=0;dashed=0;image;image=img/lib/ibm/applications/saas_applications.svg;strokeColor=#FF0000;fillColor=#FFFF66;gradientColor=none;fontColor=#4277BB;labelBackgroundColor=#ffffff;spacingTop=3;" parent="21" vertex="1">
          <mxGeometry x="60" y="190" width="60" height="60" as="geometry" />
        </mxCell>
        <mxCell id="5" value="负载均衡" style="aspect=fixed;perimeter=ellipsePerimeter;html=1;align=center;shadow=0;dashed=0;image;image=img/lib/ibm/infrastructure/edge_services.svg;strokeColor=#FF0000;fillColor=#FFFF66;gradientColor=none;fontColor=#4277BB;labelBackgroundColor=#ffffff;spacingTop=3;" parent="21" vertex="1">
          <mxGeometry x="200" y="140" width="60" height="60" as="geometry" />
        </mxCell>
        <mxCell id="9FPDRN5Og9MOIQTKryaw-71" value="" style="edgeStyle=orthogonalEdgeStyle;rounded=0;orthogonalLoop=1;jettySize=auto;html=1;strokeWidth=2;strokeColor=#edc11c;" parent="21" source="6" edge="1">
          <mxGeometry relative="1" as="geometry">
            <mxPoint x="520" y="205" as="targetPoint" />
          </mxGeometry>
        </mxCell>
        <mxCell id="6" value="服务网关" style="aspect=fixed;perimeter=ellipsePerimeter;html=1;align=center;shadow=0;dashed=0;image;image=img/lib/ibm/management/api_management.svg;strokeColor=#FF0000;fillColor=#FFFF66;gradientColor=none;fontColor=#4277BB;labelBackgroundColor=#ffffff;spacingTop=3;" parent="21" vertex="1">
          <mxGeometry x="490" y="65" width="60" height="60" as="geometry" />
        </mxCell>
        <mxCell id="8" value="用户服务" style="aspect=fixed;perimeter=ellipsePerimeter;html=1;align=center;shadow=0;dashed=0;image;image=img/lib/ibm/analytics/analytics.svg;strokeColor=#FF0000;fillColor=#FFFF66;gradientColor=none;fontColor=#4277BB;labelBackgroundColor=#ffffff;spacingTop=3;" parent="21" vertex="1">
          <mxGeometry x="440" y="250" width="60" height="60" as="geometry" />
        </mxCell>
        <mxCell id="10" value="银行券商&lt;div&gt;业务服务&lt;/div&gt;" style="aspect=fixed;perimeter=ellipsePerimeter;html=1;align=center;shadow=0;dashed=0;image;image=img/lib/ibm/analytics/analytics.svg;strokeColor=#FF0000;fillColor=#FFFF66;gradientColor=none;fontColor=#4277BB;labelBackgroundColor=#ffffff;spacingTop=3;" parent="21" vertex="1">
          <mxGeometry x="660" y="250" width="60" height="60" as="geometry" />
        </mxCell>
        <mxCell id="12" value="关系型数据库&lt;div&gt;MySQL&lt;/div&gt;" style="aspect=fixed;perimeter=ellipsePerimeter;html=1;align=center;shadow=0;dashed=0;image;image=img/lib/ibm/data/device_registry.svg;strokeColor=#FF0000;fillColor=#FFFF66;gradientColor=none;fontColor=#4277BB;labelBackgroundColor=#ffffff;spacingTop=3;" parent="21" vertex="1">
          <mxGeometry x="331" y="471" width="60" height="60" as="geometry" />
        </mxCell>
        <mxCell id="9FPDRN5Og9MOIQTKryaw-79" value="" style="edgeStyle=orthogonalEdgeStyle;rounded=0;orthogonalLoop=1;jettySize=auto;html=1;startArrow=classic;startFill=1;fillColor=#d5e8d4;strokeColor=#82b366;strokeWidth=2;" parent="21" source="15" target="16" edge="1">
          <mxGeometry relative="1" as="geometry" />
        </mxCell>
        <mxCell id="9FPDRN5Og9MOIQTKryaw-80" value="" style="edgeStyle=orthogonalEdgeStyle;rounded=0;orthogonalLoop=1;jettySize=auto;html=1;startArrow=classic;startFill=1;exitX=0;exitY=0.5;exitDx=0;exitDy=0;fillColor=#d5e8d4;strokeColor=#82b366;strokeWidth=2;" parent="21" source="15" target="9FPDRN5Og9MOIQTKryaw-77" edge="1">
          <mxGeometry relative="1" as="geometry">
            <Array as="points">
              <mxPoint x="885" y="395" />
              <mxPoint x="885" y="280" />
            </Array>
          </mxGeometry>
        </mxCell>
        <mxCell id="9FPDRN5Og9MOIQTKryaw-117" value="&lt;font style=&quot;font-size: 12px;&quot; color=&quot;#4277bb&quot;&gt;子系统/业务应用&lt;/font&gt;&lt;div style=&quot;font-size: 12px;&quot;&gt;&lt;font style=&quot;font-size: 12px;&quot; color=&quot;#4277bb&quot;&gt;对接链路&lt;/font&gt;&lt;/div&gt;" style="edgeLabel;html=1;align=center;verticalAlign=middle;resizable=0;points=[];" parent="9FPDRN5Og9MOIQTKryaw-80" vertex="1" connectable="0">
          <mxGeometry x="0.0484" relative="1" as="geometry">
            <mxPoint as="offset" />
          </mxGeometry>
        </mxCell>
        <mxCell id="15" value="数据合成子系统&lt;div&gt;服务/单点登录客户端&lt;/div&gt;" style="aspect=fixed;perimeter=ellipsePerimeter;html=1;align=center;shadow=0;dashed=0;image;image=img/lib/ibm/applications/enterprise_applications.svg;strokeColor=#FF0000;fillColor=#FFFF66;gradientColor=none;fontColor=#4277BB;labelBackgroundColor=#ffffff;spacingTop=3;" parent="21" vertex="1">
          <mxGeometry x="975" y="365" width="60" height="60" as="geometry" />
        </mxCell>
        <mxCell id="9FPDRN5Og9MOIQTKryaw-78" value="" style="edgeStyle=orthogonalEdgeStyle;rounded=0;orthogonalLoop=1;jettySize=auto;html=1;startArrow=classic;startFill=1;fillColor=#d5e8d4;strokeColor=#82b366;strokeWidth=2;" parent="21" source="16" target="17" edge="1">
          <mxGeometry relative="1" as="geometry" />
        </mxCell>
        <mxCell id="16" value="数据合成子系统&lt;div&gt;数据存储&lt;/div&gt;" style="aspect=fixed;perimeter=ellipsePerimeter;html=1;align=center;shadow=0;dashed=0;image;image=img/lib/ibm/data/enterprise_data.svg;strokeColor=#FF0000;fillColor=#FFFF66;gradientColor=none;fontColor=#4277BB;labelBackgroundColor=#ffffff;spacingTop=3;" parent="21" vertex="1">
          <mxGeometry x="975" y="485" width="60" height="60" as="geometry" />
        </mxCell>
        <mxCell id="17" value="数据合成子系统&lt;div&gt;用户映射&lt;/div&gt;" style="aspect=fixed;perimeter=ellipsePerimeter;html=1;align=center;shadow=0;dashed=0;image;image=img/lib/ibm/data/enterprise_user_directory.svg;strokeColor=#FF0000;fillColor=#FFFF66;gradientColor=none;fontColor=#4277BB;labelBackgroundColor=#ffffff;spacingTop=3;" parent="21" vertex="1">
          <mxGeometry x="975" y="615" width="60" height="60" as="geometry" />
        </mxCell>
        <mxCell id="39" value="" style="swimlane;shadow=0;labelBackgroundColor=#007FFF;strokeColor=#4277BB;fillColor=none;gradientColor=none;fontColor=#000000;align=right;collapsible=0;startSize=0;strokeWidth=3;" parent="21" vertex="1">
          <mxGeometry x="210" y="590" width="650" height="120" as="geometry" />
        </mxCell>
        <mxCell id="18" value="安全管理" style="aspect=fixed;perimeter=ellipsePerimeter;html=1;align=center;shadow=0;dashed=0;image;image=img/lib/ibm/blockchain/certificate_authority.svg;strokeColor=#FF0000;fillColor=#FFFF66;gradientColor=none;fontColor=#4277BB;labelBackgroundColor=#ffffff;spacingTop=3;" parent="39" vertex="1">
          <mxGeometry x="79" y="21" width="60" height="60" as="geometry" />
        </mxCell>
        <mxCell id="19" value="链路跟踪" style="aspect=fixed;perimeter=ellipsePerimeter;html=1;align=center;shadow=0;dashed=0;image;image=img/lib/ibm/management/information_governance.svg;strokeColor=#FF0000;fillColor=#FFFF66;gradientColor=none;fontColor=#4277BB;labelBackgroundColor=#ffffff;spacingTop=3;" parent="39" vertex="1">
          <mxGeometry x="349" y="21" width="60" height="60" as="geometry" />
        </mxCell>
        <mxCell id="20" value="服务监控" style="aspect=fixed;perimeter=ellipsePerimeter;html=1;align=center;shadow=0;dashed=0;image;image=img/lib/ibm/management/cluster_management.svg;strokeColor=#FF0000;fillColor=#FFFF66;gradientColor=none;fontColor=#4277BB;labelBackgroundColor=#ffffff;spacingTop=3;" parent="39" vertex="1">
          <mxGeometry x="215" y="21" width="60" height="60" as="geometry" />
        </mxCell>
        <mxCell id="9FPDRN5Og9MOIQTKryaw-93" value="任务调度" style="image;aspect=fixed;perimeter=ellipsePerimeter;html=1;align=center;shadow=0;dashed=0;fontColor=#4277BB;labelBackgroundColor=default;fontSize=12;spacingTop=3;image=img/lib/ibm/management/process_management.svg;" parent="39" vertex="1">
          <mxGeometry x="485" y="21" width="60" height="60" as="geometry" />
        </mxCell>
        <mxCell id="22" value="用户接入层" style="text;html=1;align=left;verticalAlign=middle;fontColor=#4277BB;shadow=0;dashed=0;strokeColor=none;fillColor=none;labelBackgroundColor=none;fontStyle=1;fontSize=14;spacingLeft=5;" parent="21" vertex="1">
          <mxGeometry y="10" width="150" height="20" as="geometry" />
        </mxCell>
        <mxCell id="43" value="" style="line;strokeWidth=3;direction=south;html=1;shadow=0;labelBackgroundColor=none;fillColor=none;gradientColor=none;fontSize=12;fontColor=#4277BB;align=right;strokeColor=#4277BB;" parent="21" vertex="1">
          <mxGeometry x="225" width="10" height="130" as="geometry" />
        </mxCell>
        <mxCell id="44" value="" style="line;strokeWidth=3;direction=south;html=1;shadow=0;labelBackgroundColor=none;fillColor=none;gradientColor=none;fontSize=12;fontColor=#4277BB;align=right;strokeColor=#4277BB;" parent="21" vertex="1">
          <mxGeometry x="225" y="240" width="10" height="350" as="geometry" />
        </mxCell>
        <mxCell id="46" value="" style="line;strokeWidth=3;direction=south;html=1;shadow=0;labelBackgroundColor=none;fillColor=none;gradientColor=none;fontSize=12;fontColor=#4277BB;align=right;strokeColor=#4277BB;" parent="21" vertex="1">
          <mxGeometry x="820" y="350" width="10" height="240" as="geometry" />
        </mxCell>
        <mxCell id="47" value="" style="line;strokeWidth=3;direction=south;html=1;shadow=0;labelBackgroundColor=none;fillColor=none;gradientColor=none;fontSize=12;fontColor=#4277BB;align=right;strokeColor=#4277BB;" parent="21" vertex="1">
          <mxGeometry x="820" width="10" height="240" as="geometry" />
        </mxCell>
        <mxCell id="48" value="业务中台（一站式监测平台）" style="text;html=1;align=left;verticalAlign=middle;fontColor=#4277BB;shadow=0;dashed=0;strokeColor=none;fillColor=none;labelBackgroundColor=none;fontStyle=1;fontSize=14;spacingLeft=5;" parent="21" vertex="1">
          <mxGeometry x="230" y="10" width="186" height="20" as="geometry" />
        </mxCell>
        <mxCell id="49" value="系统对接层" style="text;html=1;align=left;verticalAlign=middle;fontColor=#4277BB;shadow=0;dashed=0;strokeColor=none;fillColor=none;labelBackgroundColor=none;fontStyle=1;fontSize=14;spacingLeft=5;" parent="21" vertex="1">
          <mxGeometry x="825" y="10" width="185" height="20" as="geometry" />
        </mxCell>
        <mxCell id="50" value="前端应用" style="rounded=0;html=1;shadow=0;labelBackgroundColor=none;strokeColor=none;strokeWidth=2;fillColor=#EBC01A;gradientColor=none;fontSize=12;fontColor=#4277BB;align=left;labelPosition=right;verticalLabelPosition=middle;verticalAlign=middle;spacingLeft=5;" parent="21" vertex="1">
          <mxGeometry x="20" y="580" width="20" height="10" as="geometry" />
        </mxCell>
        <mxCell id="51" value="负载均衡" style="rounded=0;html=1;shadow=0;labelBackgroundColor=none;strokeColor=none;strokeWidth=2;fillColor=#8DC642;gradientColor=none;fontSize=12;fontColor=#4277BB;align=left;labelPosition=right;verticalLabelPosition=middle;verticalAlign=middle;spacingLeft=5;" parent="21" vertex="1">
          <mxGeometry x="20" y="600" width="20" height="10" as="geometry" />
        </mxCell>
        <mxCell id="52" value="服务治理" style="rounded=0;html=1;shadow=0;labelBackgroundColor=none;strokeColor=none;strokeWidth=2;fillColor=#0DB39D;gradientColor=none;fontSize=12;fontColor=#4277BB;align=left;labelPosition=right;verticalLabelPosition=middle;verticalAlign=middle;spacingLeft=5;" parent="21" vertex="1">
          <mxGeometry x="20" y="620" width="20" height="10" as="geometry" />
        </mxCell>
        <mxCell id="53" value="数据持久" style="rounded=0;html=1;shadow=0;labelBackgroundColor=none;strokeColor=none;strokeWidth=2;fillColor=#335D81;gradientColor=none;fontSize=12;fontColor=#4277BB;align=left;labelPosition=right;verticalLabelPosition=middle;verticalAlign=middle;spacingLeft=5;" parent="21" vertex="1">
          <mxGeometry x="20" y="640" width="20" height="10" as="geometry" />
        </mxCell>
        <mxCell id="54" value="服务实例" style="rounded=0;html=1;shadow=0;labelBackgroundColor=none;strokeColor=none;strokeWidth=2;fillColor=#744399;gradientColor=none;fontSize=12;fontColor=#4277BB;align=left;labelPosition=right;verticalLabelPosition=middle;verticalAlign=middle;spacingLeft=5;" parent="21" vertex="1">
          <mxGeometry x="20" y="660" width="20" height="10" as="geometry" />
        </mxCell>
        <mxCell id="56" value="安全管理" style="rounded=0;html=1;shadow=0;labelBackgroundColor=none;strokeColor=none;strokeWidth=2;fillColor=#E52134;gradientColor=none;fontSize=12;fontColor=#4277BB;align=left;labelPosition=right;verticalLabelPosition=middle;verticalAlign=middle;spacingLeft=5;" parent="21" vertex="1">
          <mxGeometry x="20" y="682" width="20" height="10" as="geometry" />
        </mxCell>
        <mxCell id="59" value="图标" style="text;html=1;align=left;verticalAlign=middle;fontColor=#4277BB;shadow=0;dashed=0;strokeColor=none;fillColor=none;labelBackgroundColor=none;fontStyle=1;fontSize=14;spacingLeft=0;" parent="21" vertex="1">
          <mxGeometry x="20" y="550" width="150" height="20" as="geometry" />
        </mxCell>
        <mxCell id="9FPDRN5Og9MOIQTKryaw-68" style="edgeStyle=orthogonalEdgeStyle;rounded=0;orthogonalLoop=1;jettySize=auto;html=1;entryX=0.5;entryY=0;entryDx=0;entryDy=0;startArrow=classic;startFill=1;strokeWidth=2;strokeColor=#4277bb;" parent="21" target="6" edge="1">
          <mxGeometry relative="1" as="geometry">
            <mxPoint x="720" y="170" as="sourcePoint" />
          </mxGeometry>
        </mxCell>
        <mxCell id="jU6cq3XHtNQqyiMAm8es-70" value="&lt;font style=&quot;font-size: 12px;&quot; color=&quot;#4277bb&quot;&gt;服务注册&lt;/font&gt;&lt;div style=&quot;font-size: 12px;&quot;&gt;&lt;font color=&quot;#4277bb&quot;&gt;发现链路&lt;/font&gt;&lt;/div&gt;" style="edgeLabel;html=1;align=center;verticalAlign=middle;resizable=0;points=[];" vertex="1" connectable="0" parent="9FPDRN5Og9MOIQTKryaw-68">
          <mxGeometry x="-0.2098" relative="1" as="geometry">
            <mxPoint as="offset" />
          </mxGeometry>
        </mxCell>
        <mxCell id="9FPDRN5Og9MOIQTKryaw-76" value="" style="edgeStyle=orthogonalEdgeStyle;rounded=0;orthogonalLoop=1;jettySize=auto;html=1;strokeColor=#4277bb;strokeWidth=2;" parent="21" edge="1">
          <mxGeometry relative="1" as="geometry">
            <mxPoint x="535" y="391" as="targetPoint" />
            <Array as="points">
              <mxPoint x="750" y="421" />
              <mxPoint x="535" y="421" />
            </Array>
            <mxPoint x="750" y="200" as="sourcePoint" />
          </mxGeometry>
        </mxCell>
        <mxCell id="9FPDRN5Og9MOIQTKryaw-116" value="&lt;font style=&quot;font-size: 12px;&quot; color=&quot;#4277bb&quot;&gt;服务注册&lt;/font&gt;&lt;div style=&quot;font-size: 12px;&quot;&gt;&lt;font style=&quot;font-size: 12px;&quot; color=&quot;#4277bb&quot;&gt;发现链路&lt;/font&gt;&lt;/div&gt;" style="edgeLabel;html=1;align=center;verticalAlign=middle;resizable=0;points=[];" parent="9FPDRN5Og9MOIQTKryaw-76" vertex="1" connectable="0">
          <mxGeometry x="-0.3658" y="1" relative="1" as="geometry">
            <mxPoint as="offset" />
          </mxGeometry>
        </mxCell>
        <mxCell id="9FPDRN5Og9MOIQTKryaw-63" value="NGINX" style="image;aspect=fixed;perimeter=ellipsePerimeter;html=1;align=center;shadow=0;dashed=0;fontColor=#4277BB;labelBackgroundColor=default;fontSize=12;spacingTop=3;image=img/lib/ibm/infrastructure/dashboard.svg;" parent="21" vertex="1">
          <mxGeometry x="293" y="140" width="60" height="60" as="geometry" />
        </mxCell>
        <mxCell id="9FPDRN5Og9MOIQTKryaw-65" style="edgeStyle=orthogonalEdgeStyle;rounded=0;html=1;labelBackgroundColor=#ffffff;startArrow=classic;startFill=1;startSize=4;endSize=4;jettySize=auto;orthogonalLoop=1;strokeColor=#EDC11C;strokeWidth=2;fontSize=12;fontColor=#4277BB;exitX=1;exitY=0.5;exitDx=0;exitDy=0;entryX=0;entryY=0.5;entryDx=0;entryDy=0;" parent="21" source="5" target="9FPDRN5Og9MOIQTKryaw-63" edge="1">
          <mxGeometry relative="1" as="geometry">
            <Array as="points" />
            <mxPoint x="220" y="190" as="sourcePoint" />
            <mxPoint x="315" y="171" as="targetPoint" />
          </mxGeometry>
        </mxCell>
        <mxCell id="9FPDRN5Og9MOIQTKryaw-69" value="&lt;font color=&quot;#bd4242&quot;&gt;统一认证服务&lt;/font&gt;&lt;div&gt;&lt;font color=&quot;#bd4242&quot;&gt;单点登录服务端&lt;/font&gt;&lt;/div&gt;" style="aspect=fixed;perimeter=ellipsePerimeter;html=1;align=center;shadow=0;dashed=0;image;image=img/lib/ibm/analytics/analytics.svg;strokeColor=#FF0000;fillColor=#FFFF66;gradientColor=none;fontColor=#4277BB;labelBackgroundColor=#ffffff;spacingTop=3;" parent="21" vertex="1">
          <mxGeometry x="541" y="250" width="60" height="60" as="geometry" />
        </mxCell>
        <mxCell id="9FPDRN5Og9MOIQTKryaw-77" value="负载均衡" style="aspect=fixed;perimeter=ellipsePerimeter;html=1;align=center;shadow=0;dashed=0;image;image=img/lib/ibm/infrastructure/edge_services.svg;strokeColor=#FF0000;fillColor=#FFFF66;gradientColor=none;fontColor=#4277BB;labelBackgroundColor=#ffffff;spacingTop=3;" parent="21" vertex="1">
          <mxGeometry x="795" y="250" width="60" height="60" as="geometry" />
        </mxCell>
        <mxCell id="9FPDRN5Og9MOIQTKryaw-86" value="" style="edgeStyle=orthogonalEdgeStyle;rounded=0;orthogonalLoop=1;jettySize=auto;html=1;startArrow=classic;startFill=1;fillColor=#d5e8d4;strokeColor=#82b366;strokeWidth=2;" parent="21" source="9FPDRN5Og9MOIQTKryaw-87" target="9FPDRN5Og9MOIQTKryaw-89" edge="1">
          <mxGeometry relative="1" as="geometry" />
        </mxCell>
        <mxCell id="9FPDRN5Og9MOIQTKryaw-91" style="edgeStyle=orthogonalEdgeStyle;rounded=0;orthogonalLoop=1;jettySize=auto;html=1;entryX=1;entryY=0;entryDx=0;entryDy=0;startArrow=classic;startFill=1;fillColor=#d5e8d4;strokeColor=#82b366;strokeWidth=2;" parent="21" source="9FPDRN5Og9MOIQTKryaw-87" target="9FPDRN5Og9MOIQTKryaw-77" edge="1">
          <mxGeometry relative="1" as="geometry" />
        </mxCell>
        <mxCell id="jU6cq3XHtNQqyiMAm8es-65" value="&lt;font style=&quot;font-size: 12px;&quot; color=&quot;#4277bb&quot;&gt;REST/Websocket&lt;/font&gt;&lt;div style=&quot;font-size: 12px;&quot;&gt;&lt;font style=&quot;font-size: 12px;&quot; color=&quot;#4277bb&quot;&gt;获取合成数据&lt;/font&gt;&lt;/div&gt;" style="edgeLabel;html=1;align=center;verticalAlign=middle;resizable=0;points=[];" vertex="1" connectable="0" parent="9FPDRN5Og9MOIQTKryaw-91">
          <mxGeometry x="-0.4095" relative="1" as="geometry">
            <mxPoint as="offset" />
          </mxGeometry>
        </mxCell>
        <mxCell id="9FPDRN5Og9MOIQTKryaw-87" value="银行业务应用&lt;div&gt;单点登录客户端&lt;/div&gt;" style="aspect=fixed;perimeter=ellipsePerimeter;html=1;align=center;shadow=0;dashed=0;image;image=img/lib/ibm/applications/enterprise_applications.svg;strokeColor=#FF0000;fillColor=#FFFF66;gradientColor=none;fontColor=#4277BB;labelBackgroundColor=#ffffff;spacingTop=3;" parent="21" vertex="1">
          <mxGeometry x="973" y="67" width="60" height="60" as="geometry" />
        </mxCell>
        <mxCell id="9FPDRN5Og9MOIQTKryaw-89" value="银行业务应用&lt;br&gt;&lt;div&gt;数据存储&lt;/div&gt;" style="aspect=fixed;perimeter=ellipsePerimeter;html=1;align=center;shadow=0;dashed=0;image;image=img/lib/ibm/data/enterprise_data.svg;strokeColor=#FF0000;fillColor=#FFFF66;gradientColor=none;fontColor=#4277BB;labelBackgroundColor=#ffffff;spacingTop=3;" parent="21" vertex="1">
          <mxGeometry x="973" y="187" width="60" height="60" as="geometry" />
        </mxCell>
        <mxCell id="9FPDRN5Og9MOIQTKryaw-94" value="分布式缓存&lt;div&gt;Redis&lt;/div&gt;" style="image;aspect=fixed;perimeter=ellipsePerimeter;html=1;align=center;shadow=0;dashed=0;fontColor=#4277BB;labelBackgroundColor=default;fontSize=12;spacingTop=3;image=img/lib/ibm/data/caches.svg;" parent="21" vertex="1">
          <mxGeometry x="440" y="471" width="60" height="60" as="geometry" />
        </mxCell>
        <mxCell id="9FPDRN5Og9MOIQTKryaw-95" value="公共服务&lt;div&gt;看板服务&lt;/div&gt;" style="aspect=fixed;perimeter=ellipsePerimeter;html=1;align=center;shadow=0;dashed=0;image;image=img/lib/ibm/analytics/analytics.svg;strokeColor=#FF0000;fillColor=#FFFF66;gradientColor=none;fontColor=#4277BB;labelBackgroundColor=#ffffff;spacingTop=3;" parent="21" vertex="1">
          <mxGeometry x="331" y="247" width="60" height="60" as="geometry" />
        </mxCell>
        <mxCell id="9FPDRN5Og9MOIQTKryaw-96" value="" style="endArrow=none;html=1;rounded=0;entryX=0;entryY=0.5;entryDx=0;entryDy=0;strokeColor=#edc11c;strokeWidth=2;edgeStyle=orthogonalEdgeStyle;exitX=0;exitY=0.5;exitDx=0;exitDy=0;" parent="21" source="9FPDRN5Og9MOIQTKryaw-95" target="12" edge="1">
          <mxGeometry width="50" height="50" relative="1" as="geometry">
            <mxPoint x="359" y="391" as="sourcePoint" />
            <mxPoint x="359" y="471" as="targetPoint" />
            <Array as="points">
              <mxPoint x="275" y="277" />
              <mxPoint x="275" y="501" />
            </Array>
          </mxGeometry>
        </mxCell>
        <mxCell id="9FPDRN5Og9MOIQTKryaw-97" value="" style="endArrow=none;html=1;rounded=0;entryX=0.5;entryY=0;entryDx=0;entryDy=0;strokeColor=#edc11c;strokeWidth=2;edgeStyle=orthogonalEdgeStyle;" parent="21" edge="1">
          <mxGeometry width="50" height="50" relative="1" as="geometry">
            <mxPoint x="315" y="280" as="sourcePoint" />
            <mxPoint x="469.47" y="470" as="targetPoint" />
            <Array as="points">
              <mxPoint x="315" y="300" />
              <mxPoint x="315" y="430" />
              <mxPoint x="469" y="430" />
            </Array>
          </mxGeometry>
        </mxCell>
        <mxCell id="9FPDRN5Og9MOIQTKryaw-100" value="" style="edgeStyle=orthogonalEdgeStyle;rounded=0;orthogonalLoop=1;jettySize=auto;html=1;startArrow=classic;startFill=1;endArrow=none;endFill=0;strokeColor=#edc11c;strokeWidth=2;" parent="21" target="9FPDRN5Og9MOIQTKryaw-93" edge="1">
          <mxGeometry relative="1" as="geometry">
            <mxPoint x="725" y="531" as="sourcePoint" />
          </mxGeometry>
        </mxCell>
        <mxCell id="9FPDRN5Og9MOIQTKryaw-102" value="批量任务服务" style="image;aspect=fixed;perimeter=ellipsePerimeter;html=1;align=center;shadow=0;dashed=0;fontColor=#4277BB;labelBackgroundColor=default;fontSize=12;spacingTop=3;image=img/lib/ibm/analytics/data_repositories.svg;" parent="21" vertex="1">
          <mxGeometry x="695" y="471" width="60" height="60" as="geometry" />
        </mxCell>
        <mxCell id="9FPDRN5Og9MOIQTKryaw-103" value="" style="endArrow=none;html=1;rounded=0;entryX=1;entryY=0.5;entryDx=0;entryDy=0;strokeColor=#edc11c;strokeWidth=2;edgeStyle=orthogonalEdgeStyle;exitX=0;exitY=0.5;exitDx=0;exitDy=0;" parent="21" source="9FPDRN5Og9MOIQTKryaw-102" target="9FPDRN5Og9MOIQTKryaw-94" edge="1">
          <mxGeometry width="50" height="50" relative="1" as="geometry">
            <mxPoint x="645" y="485" as="sourcePoint" />
            <mxPoint x="645" y="565" as="targetPoint" />
          </mxGeometry>
        </mxCell>
        <mxCell id="9FPDRN5Og9MOIQTKryaw-104" value="" style="endArrow=none;html=1;rounded=0;entryX=1;entryY=0.75;entryDx=0;entryDy=0;strokeColor=#edc11c;strokeWidth=2;edgeStyle=orthogonalEdgeStyle;exitX=0.25;exitY=1;exitDx=0;exitDy=0;" parent="21" source="9FPDRN5Og9MOIQTKryaw-102" target="12" edge="1">
          <mxGeometry width="50" height="50" relative="1" as="geometry">
            <mxPoint x="667.5" y="570" as="sourcePoint" />
            <mxPoint x="472.5" y="570" as="targetPoint" />
            <Array as="points">
              <mxPoint x="543" y="528" />
              <mxPoint x="543" y="570" />
              <mxPoint x="415" y="570" />
              <mxPoint x="415" y="514" />
            </Array>
          </mxGeometry>
        </mxCell>
        <mxCell id="BBDyBYY_npvB5Mv4YyLT-62" value="服务注册&lt;div&gt;配置中心&lt;/div&gt;&lt;div&gt;Nacos&lt;/div&gt;" style="image;aspect=fixed;perimeter=ellipsePerimeter;html=1;align=center;shadow=0;dashed=0;fontColor=#4277BB;labelBackgroundColor=default;fontSize=12;spacingTop=3;image=img/lib/ibm/management/cloud_management.svg;" parent="21" vertex="1">
          <mxGeometry x="720" y="140" width="60" height="60" as="geometry" />
        </mxCell>
        <mxCell id="jU6cq3XHtNQqyiMAm8es-63" value="银行、券商业务应用通过API方式与一站式平台对接" style="text;html=1;align=left;verticalAlign=middle;whiteSpace=wrap;rounded=0;" vertex="1" parent="21">
          <mxGeometry x="925" y="20" width="144" height="42" as="geometry" />
        </mxCell>
        <mxCell id="jU6cq3XHtNQqyiMAm8es-64" value="课题1：数据合成&lt;div&gt;课题2：存证溯源&lt;/div&gt;&lt;div&gt;课题3：模型风险评估&lt;/div&gt;&lt;div&gt;课题4：全流程风险检测&lt;/div&gt;&lt;div&gt;通过单点登录的方式接入一站式平台&lt;/div&gt;" style="text;html=1;align=left;verticalAlign=middle;whiteSpace=wrap;rounded=0;" vertex="1" parent="21">
          <mxGeometry x="830" y="466" width="133" height="98" as="geometry" />
        </mxCell>
        <mxCell id="jU6cq3XHtNQqyiMAm8es-67" value="" style="endArrow=classic;html=1;rounded=0;edgeStyle=orthogonalEdgeStyle;exitX=0.5;exitY=0;exitDx=0;exitDy=0;entryX=1;entryY=1;entryDx=0;entryDy=0;startArrow=classic;startFill=1;endFill=1;fillColor=#fff2cc;strokeColor=#d6b656;strokeWidth=2;" edge="1" parent="21" source="15" target="9FPDRN5Og9MOIQTKryaw-77">
          <mxGeometry width="50" height="50" relative="1" as="geometry">
            <mxPoint x="1002" y="364.5" as="sourcePoint" />
            <mxPoint x="1052" y="314.5" as="targetPoint" />
            <Array as="points">
              <mxPoint x="1005" y="301" />
            </Array>
          </mxGeometry>
        </mxCell>
        <mxCell id="jU6cq3XHtNQqyiMAm8es-68" value="&lt;font style=&quot;font-size: 12px;&quot; color=&quot;#4277bb&quot;&gt;REST/Websocket&lt;/font&gt;&lt;div style=&quot;font-size: 12px;&quot;&gt;&lt;font style=&quot;font-size: 12px;&quot; color=&quot;#4277bb&quot;&gt;看板接口&lt;/font&gt;&lt;/div&gt;" style="edgeLabel;html=1;align=center;verticalAlign=middle;resizable=0;points=[];" vertex="1" connectable="0" parent="jU6cq3XHtNQqyiMAm8es-67">
          <mxGeometry x="0.0135" y="1" relative="1" as="geometry">
            <mxPoint as="offset" />
          </mxGeometry>
        </mxCell>
        <mxCell id="9FPDRN5Og9MOIQTKryaw-101" value="" style="endArrow=classic;html=1;rounded=0;exitX=0.5;exitY=0;exitDx=0;exitDy=0;edgeStyle=orthogonalEdgeStyle;startArrow=classic;startFill=1;endFill=1;strokeColor=#4277bb;strokeWidth=2;" parent="1" edge="1">
          <mxGeometry width="50" height="50" relative="1" as="geometry">
            <mxPoint x="774" y="520" as="sourcePoint" />
            <mxPoint x="684" y="469" as="targetPoint" />
            <Array as="points">
              <mxPoint x="774" y="495" />
              <mxPoint x="684" y="495" />
              <mxPoint x="684" y="469" />
            </Array>
          </mxGeometry>
        </mxCell>
        <mxCell id="9FPDRN5Og9MOIQTKryaw-119" value="一站式监测平台系统架构设计" style="text;strokeColor=none;fillColor=none;html=1;fontSize=24;fontStyle=1;verticalAlign=middle;align=center;" parent="1" vertex="1">
          <mxGeometry x="519" y="9" width="100" height="40" as="geometry" />
        </mxCell>
      </root>
    </mxGraphModel>
  </diagram>
</mxfile>
